<svg width="100" height="100" xmlns="http://www.w3.org/2000/svg">
 <g>
  <title>background</title>
  <rect x="-1" y="-1" width="102" height="102" id="canvas_background" fill="none"/>
 </g>

 <g>
  <title>Layer 1</title>
  <g fill="#764ABC" id="svg_1">
   <path d="m65.6,65.4c2.9,-0.3 5.1,-2.8 5,-5.8c-0.1,-3 -2.6,-5.4 -5.6,-5.4l-0.2,0c-3.1,0.1 -5.5,2.7 -5.4,5.8c0.1,1.5 0.7,2.8 1.6,3.7c-3.4,6.7 -8.6,11.6 -16.4,15.7c-5.3,2.8 -10.8,3.8 -16.3,3.1c-4.5,-0.6 -8,-2.6 -10.2,-5.9c-3.2,-4.9 -3.5,-10.2 -0.8,-15.5c1.9,-3.8 4.9,-6.6 6.8,-8c-0.4,-1.3 -1,-3.5 -1.3,-5.1c-14.5,10.5 -13,24.7 -8.6,31.4c3.3,5 10,8.1 17.4,8.1c2,0 4,-0.2 6,-0.7c12.8,-2.5 22.5,-10.1 28,-21.4z" id="svg_2" fill="#343a40"/>
   <path d="m83.2,53c-7.6,-8.9 -18.8,-13.8 -31.6,-13.8l-1.6,0c-0.9,-1.8 -2.8,-3 -4.9,-3l-0.2,0c-3.1,0.1 -5.5,2.7 -5.4,5.8c0.1,3 2.6,5.4 5.6,5.4l0.2,0c2.2,-0.1 4.1,-1.5 4.9,-3.4l1.8,0c7.6,0 14.8,2.2 21.3,6.5c5,3.3 8.6,7.6 10.6,12.8c1.7,4.2 1.6,8.3 -0.2,11.8c-2.8,5.3 -7.5,8.2 -13.7,8.2c-4,0 -7.8,-1.2 -9.8,-2.1c-1.1,1 -3.1,2.6 -4.5,3.6c4.3,2 8.7,3.1 12.9,3.1c9.6,0 16.7,-5.3 19.4,-10.6c2.9,-5.8 2.7,-15.8 -4.8,-24.3z" id="svg_3" fill="#343a40"/>
   <path d="m32.4,67.1c0.1,3 2.6,5.4 5.6,5.4l0.2,0c3.1,-0.1 5.5,-2.7 5.4,-5.8c-0.1,-3 -2.6,-5.4 -5.6,-5.4l-0.2,0c-0.2,0 -0.5,0 -0.7,0.1c-4.1,-6.8 -5.8,-14.2 -5.2,-22.2c0.4,-6 2.4,-11.2 5.9,-15.5c2.9,-3.7 8.5,-5.5 12.3,-5.6c10.6,-0.2 15.1,13 15.4,18.3c1.3,0.3 3.5,1 5,1.5c-1.2,-16.2 -11.2,-24.6 -20.8,-24.6c-9,0 -17.3,6.5 -20.6,16.1c-4.6,12.8 -1.6,25.1 4,34.8c-0.5,0.7 -0.8,1.8 -0.7,2.9z" id="svg_4" fill="#343a40" stroke="null"/>
  </g>
 </g>
</svg>